<svg id="Layer_2" data-name="Layer 2" xmlns="http://www.w3.org/2000/svg" viewBox="0 0 100.13 45.04"><defs><style>.cls-1{fill:#334f99;}.cls-2{fill:#fff;}.cls-3{fill:#fffefe;}</style></defs><path class="cls-1" d="M0,0V45H100V0ZM9.18,40.84l-.3-1H6.58l-.32,1H4l2.66-7.23H8.86l2.63,7.23Zm9.48-19.07H11.39v8.5H4V4H19.82l.48,7.18H11.45v3.43h7.21ZM29.13,38a2.87,2.87,0,0,1-.81,2.24,3.65,3.65,0,0,1-2.48.73,3.68,3.68,0,0,1-2.49-.73A2.87,2.87,0,0,1,22.54,38V33.61h2.22v3.94c0,.18,0,.37,0,.56a1.53,1.53,0,0,0,.12.54.88.88,0,0,0,.32.4,1.13,1.13,0,0,0,.63.16,1.08,1.08,0,0,0,.61-.16,1,1,0,0,0,.31-.4,1.53,1.53,0,0,0,.12-.54c0-.19,0-.38,0-.56V33.61h2.23Zm-9-20.87a12.52,12.52,0,1,1,25,0,12.52,12.52,0,1,1-25,0ZM46.6,39.7a2.33,2.33,0,0,1-.76.77,3.41,3.41,0,0,1-1.08.41,5.44,5.44,0,0,1-1.2.13L43,41a4.63,4.63,0,0,1-.67-.13,4.54,4.54,0,0,1-.71-.28,2.17,2.17,0,0,1-.63-.46,2.31,2.31,0,0,1-.65-1.7h2.23a1.19,1.19,0,0,0,.08.47.66.66,0,0,0,.43.43,2.3,2.3,0,0,0,.63.1l.3,0a.88.88,0,0,0,.3-.1.74.74,0,0,0,.23-.2.56.56,0,0,0,.09-.33.4.4,0,0,0-.07-.24.83.83,0,0,0-.24-.18,3.09,3.09,0,0,0-.48-.18c-.2-.07-.46-.14-.77-.23l-.86-.26a3,3,0,0,1-.79-.36,1.89,1.89,0,0,1-.58-.58,1.71,1.71,0,0,1-.22-.9,2.14,2.14,0,0,1,.25-1.07,2.24,2.24,0,0,1,.65-.75,2.84,2.84,0,0,1,.93-.43,4.4,4.4,0,0,1,1.09-.14,4.58,4.58,0,0,1,1.12.13,2.62,2.62,0,0,1,.95.4,2,2,0,0,1,.67.72,2.33,2.33,0,0,1,.27,1.11h-2.1a.54.54,0,0,0-.05-.34.58.58,0,0,0-.21-.23.94.94,0,0,0-.32-.15,2,2,0,0,0-.34,0l-.26,0-.26.07a.62.62,0,0,0-.2.15.36.36,0,0,0-.08.25.44.44,0,0,0,.2.32,1.8,1.8,0,0,0,.48.22,6.12,6.12,0,0,0,.66.18c.25,0,.5.12.75.19a4.74,4.74,0,0,1,.75.26,2.87,2.87,0,0,1,.66.39,1.92,1.92,0,0,1,.46.59,2,2,0,0,1,.17.85A2.18,2.18,0,0,1,46.6,39.7Zm17.51-4.24h-2v5.38H59.86V35.46h-2V33.61h6.28ZM57,30.23,53.13,23.6l-3.79,6.64h-8l7.76-13.55L41.81,4H50L53.23,9.7,56.52,4h7.92L57.25,16.6l7.91,13.63ZM77.74,40.84H75.51V33.61h2.23Zm18.25,0H93.82l-2.22-4h0v4h-2.1V33.61h2.27l2.11,3.86h0V33.61H96ZM81.11,30.24h-9.2l10-16.84c.2-.37,1.2-2.06,1.21-2.07l.26-.44H81.59c-1.26,0-2.86,0-3.38,0l-7.41.23V4H96ZM7.78,36l.65,2.22H7.07L7.76,36ZM34.84,11.92V22.41a2.18,2.18,0,0,1-2.18,2.14,2.15,2.15,0,0,1-2.13-2.17V11.92a2.25,2.25,0,0,1,2.14-2.27A2.29,2.29,0,0,1,34.84,11.92Z" transform="translate(0.1)"/><rect class="cls-1" width="100.13" height="45.04"/><g id="fox"><polygon class="cls-2" points="3.92 27.8 3.92 5.32 17.46 5.32 17.87 11.47 10.3 11.47 10.3 14.4 16.47 14.4 16.47 20.53 10.24 20.53 10.24 27.8 3.92 27.8"/><polygon class="cls-2" points="56.27 27.77 49.5 16.1 55.65 5.35 48.87 5.35 46.06 10.19 43.3 5.35 36.28 5.35 42.56 16.18 35.91 27.78 42.73 27.78 45.98 22.1 49.26 27.77 56.27 27.77"/><path class="cls-2" d="M28.32,5.66A10.82,10.82,0,0,0,17.6,16.59a10.71,10.71,0,1,0,21.42,0A10.81,10.81,0,0,0,28.32,5.66Zm1.89,15.41a1.85,1.85,0,0,1-3.69,0v-9a1.92,1.92,0,0,1,1.83-1.94,2,2,0,0,1,1.87,1.94Z" transform="translate(0.1)"/></g><g id="q13"><polygon class="cls-2" points="76.07 11.21 77.96 14.58 79.64 13.56 79.64 25.19 83.63 25.19 83.63 8.8 80.8 8.8 76.07 11.21"/><path class="cls-2" d="M84.72,10.34l2,3.12A6.49,6.49,0,0,1,90,12.23c2.07-.08,2.76.7,2.8,1.3a1.32,1.32,0,0,1-.7,1.43,2.6,2.6,0,0,1-1,.35l-3.15,0V18.6h3.5a1.94,1.94,0,0,1,1.54.85,1.76,1.76,0,0,1,.11,1.43,2.12,2.12,0,0,1-1.34.95,10,10,0,0,1-3.08,0,16.43,16.43,0,0,1-2.55-.94L84.26,24a12.77,12.77,0,0,0,6.52,1.68c4,0,4.48-.77,5.25-1.44a5.47,5.47,0,0,0,2-3.67,3.74,3.74,0,0,0-1-2.91,9.69,9.69,0,0,0-1.47-1,5.71,5.71,0,0,0,1.75-2,4.41,4.41,0,0,0,.07-3c-.46-1.34-2-2.67-4.87-3a10.27,10.27,0,0,0-4.41.18A23.92,23.92,0,0,0,84.72,10.34Z" transform="translate(0.1)"/><path class="cls-2" d="M75.89,27.29V26.7c.25.14-5.76-5.44-5.85-5.54H63.46a1.72,1.72,0,0,1-1-.28A2.11,2.11,0,0,1,62,20V14a1.6,1.6,0,0,1,.49-.81,1,1,0,0,1,.7-.31h6.3a1.32,1.32,0,0,1,1,.38,1.2,1.2,0,0,1,.35.81v6.09l3.3,3.08A3.73,3.73,0,0,0,75,22.07a4.54,4.54,0,0,0,.28-1.54V13a6.06,6.06,0,0,0-1-2.67,4.05,4.05,0,0,0-3.08-1.68H62.58a5.32,5.32,0,0,0-3.46,1.19A4.14,4.14,0,0,0,57.86,13V20.5a5,5,0,0,0,1.26,3.43,4.28,4.28,0,0,0,2.38,1.22H69l4.35,2.11Z" transform="translate(0.1)"/></g><path class="cls-3" d="M3.94,39.17,6.81,39a2.13,2.13,0,0,0,.37,1.06,1.59,1.59,0,0,0,1.33.6,1.46,1.46,0,0,0,1-.31.87.87,0,0,0,0-1.37A3.82,3.82,0,0,0,8,38.4a6.58,6.58,0,0,1-2.82-1.18,2.37,2.37,0,0,1-.85-1.88,2.57,2.57,0,0,1,.43-1.42,3,3,0,0,1,1.31-1.05,6.2,6.2,0,0,1,2.4-.38,4.82,4.82,0,0,1,2.84.7,3,3,0,0,1,1.17,2.2l-2.84.17a1.51,1.51,0,0,0-.47-1,1.53,1.53,0,0,0-1-.3,1.18,1.18,0,0,0-.79.23.68.68,0,0,0-.27.54.58.58,0,0,0,.22.42,2.62,2.62,0,0,0,1,.35,13,13,0,0,1,2.83.86,3,3,0,0,1,1.24,1.08,2.73,2.73,0,0,1,.39,1.44A3.14,3.14,0,0,1,12.26,41a3.24,3.24,0,0,1-1.45,1.2,5.88,5.88,0,0,1-2.34.41A4.8,4.8,0,0,1,5,41.6,3.81,3.81,0,0,1,3.94,39.17Z" transform="translate(0.1)"/><path class="cls-3" d="M18.51,32.66h8.06v2.08H21.52v1.54H26.2v2H21.52v1.92h5.2v2.2H18.51Z" transform="translate(0.1)"/><path class="cls-3" d="M39.17,40.78H35.75l-.47,1.61H32.21l3.66-9.73h3.28l3.66,9.73H39.66Zm-.63-2.1-1.07-3.5-1.06,3.5Z" transform="translate(0.1)"/><path class="cls-3" d="M46.89,32.66H56v2.4H53v7.33H50V35.06H46.89Z" transform="translate(0.1)"/><path class="cls-3" d="M61.15,32.66h9.14v2.4H67.23v7.33h-3V35.06H61.15Z" transform="translate(0.1)"/><path class="cls-3" d="M74.72,32.66h3V40h4.7v2.4h-7.7Z" transform="translate(0.1)"/><path class="cls-3" d="M87.67,32.66h8.06v2.08h-5v1.54h4.69v2H90.68v1.92h5.2v2.2H87.67Z" transform="translate(0.1)"/></svg>