<svg id="Layer_2" data-name="Layer 2" xmlns="http://www.w3.org/2000/svg" xmlns:xlink="http://www.w3.org/1999/xlink" viewBox="0 0 129.88 51.96"><defs><style>.cls-1{fill:#667bb1;}.cls-2{fill:#002f87;}.cls-3{fill:#aa182c;}.cls-4{fill:#fff;}.cls-5{opacity:0.7;}.cls-6{fill:url(#linear-gradient);}.cls-7{fill:url(#light_grad);}.cls-8{fill:url(#linear-gradient-2);}.cls-9{fill:url(#light_grad-2);}.cls-10{fill:url(#_281_-_75_287_CMYK_2);}.cls-11{fill:url(#RED_GRADIENT);}.cls-12{fill:url(#RED_GRADIENT-2);}.cls-13{fill:#000b62;}.cls-14{fill:#fffefe;}</style><linearGradient id="linear-gradient" x1="-948.77" y1="34.55" x2="-952.72" y2="0.91" gradientTransform="translate(1077.24 0.01)" gradientUnits="userSpaceOnUse"><stop offset="0.16" stop-color="#c2c4e0"/><stop offset="0.59" stop-color="#989dcb"/><stop offset="1" stop-color="#2c4999"/></linearGradient><linearGradient id="light_grad" x1="-949.2" y1="34.6" x2="-967.04" y2="1.61" xlink:href="#linear-gradient"/><linearGradient id="linear-gradient-2" x1="-3709.43" y1="34.55" x2="-3713.38" y2="0.91" gradientTransform="matrix(-1, 0, 0, 1, -3627.13, 0.01)" xlink:href="#linear-gradient"/><linearGradient id="light_grad-2" x1="-3709.86" y1="34.6" x2="-3727.7" y2="1.61" gradientTransform="matrix(-1, 0, 0, 1, -3627.13, 0.01)" xlink:href="#linear-gradient"/><linearGradient id="_281_-_75_287_CMYK_2" x1="105.4" y1="2.9" x2="105.4" y2="36.05" gradientUnits="userSpaceOnUse"><stop offset="0" stop-color="#445da7"/><stop offset="1" stop-color="#082358"/></linearGradient><linearGradient id="RED_GRADIENT" x1="41.74" y1="2.9" x2="41.74" y2="36.06" gradientUnits="userSpaceOnUse"><stop offset="0.01" stop-color="#ff162a"/><stop offset="1" stop-color="#c71929"/></linearGradient><linearGradient id="RED_GRADIENT-2" x1="41.74" y1="36.08" x2="41.74" y2="2.89" xlink:href="#RED_GRADIENT"/></defs><path class="cls-1" d="M0,0V39H129.9V0Z" transform="translate(-0.02 0.01)"/><path class="cls-2" d="M128.6,1.59V37.36H82.2V1.59Z" transform="translate(-0.02 0.01)"/><path class="cls-3" d="M73.55,33.16" transform="translate(-0.02 0.01)"/><path class="cls-4" d="M72.59,32.23" transform="translate(-0.02 0.01)"/><g class="cls-5"><polygon class="cls-6" points="128.58 37.37 120.62 1.59 128.58 1.59 128.58 37.37"/><polygon class="cls-7" points="114.14 1.59 128.56 37.37 106.25 1.59 114.14 1.59"/></g><g class="cls-5"><polygon class="cls-8" points="82.19 37.37 90.15 1.59 82.19 1.59 82.19 37.37"/><polygon class="cls-9" points="96.63 1.59 82.22 37.37 104.52 1.59 96.63 1.59"/></g><path class="cls-10" d="M128.6,1.59V37.36H82.2V1.59Zm-1.3,1.29H83.5V36.07h43.8Z" transform="translate(-0.02 0.01)"/><polygon class="cls-11" points="82.19 1.59 1.3 1.59 1.3 37.37 82.19 37.37 82.19 1.59 82.19 1.59"/><rect class="cls-12" x="2.6" y="2.89" width="78.3" height="33.18"/><polygon class="cls-3" points="14.1 33.2 14.1 7.62 29.51 7.62 29.98 14.62 21.36 14.62 21.36 17.95 28.39 17.95 28.39 24.93 21.3 24.93 21.31 33.2 14.1 33.2"/><polygon class="cls-3" points="73.68 33.17 65.98 19.89 72.98 7.66 65.27 7.66 62.07 13.17 58.92 7.66 50.94 7.66 58.08 19.98 50.52 33.18 58.27 33.18 61.97 26.71 65.71 33.17 73.68 33.17"/><path class="cls-3" d="M42,8A12.31,12.31,0,0,0,29.81,20.44a12.19,12.19,0,1,0,24.38,0A12.32,12.32,0,0,0,42,8Zm2.17,17.54A2.13,2.13,0,0,1,42,27.63,2.1,2.1,0,0,1,40,25.51V15.32A2.18,2.18,0,0,1,42,13.11a2.24,2.24,0,0,1,2.14,2.21Z" transform="translate(-0.02 0.01)"/><polygon class="cls-4" points="13.15 32.28 13.15 6.69 28.55 6.69 29.03 13.69 20.4 13.69 20.4 17.02 27.43 17.02 27.43 24 20.34 24 20.34 32.28 13.15 32.28"/><polygon class="cls-4" points="72.72 32.24 65.02 18.96 72.02 6.73 64.31 6.73 61.11 12.24 57.96 6.73 49.98 6.73 57.12 19.05 49.56 32.25 57.31 32.25 61.01 25.79 64.75 32.24 72.72 32.24"/><path class="cls-4" d="M41.05,7.07a12.32,12.32,0,0,0-12.2,12.44,12.19,12.19,0,1,0,24.38,0A12.32,12.32,0,0,0,41.05,7.07Zm2.16,17.54a2.13,2.13,0,0,1-2.13,2.09A2.1,2.1,0,0,1,39,24.59V14.39a2.19,2.19,0,0,1,2.08-2.21,2.24,2.24,0,0,1,2.13,2.21Z" transform="translate(-0.02 0.01)"/><polygon class="cls-13" points="103.89 13.19 105.83 16.64 107.56 15.6 107.56 27.54 111.66 27.54 111.66 10.71 108.75 10.71 103.89 13.19"/><path class="cls-13" d="M112.9,12.28l2.09,3.2a6.7,6.7,0,0,1,3.3-1.26c2.12-.08,2.83.72,2.88,1.33a1.39,1.39,0,0,1-.72,1.48,2.84,2.84,0,0,1-1,.36l-3.24,0v3.42h3.6a2,2,0,0,1,1.58.86,1.8,1.8,0,0,1,.11,1.48,2.19,2.19,0,0,1-1.37,1,10.51,10.51,0,0,1-3.16,0,17.32,17.32,0,0,1-2.63-1l-1.87,3.24A13.14,13.14,0,0,0,119.12,28c4.07,0,4.6-.79,5.4-1.47a5.67,5.67,0,0,0,2-3.78,3.81,3.81,0,0,0-1-3,9.7,9.7,0,0,0-1.51-1,5.88,5.88,0,0,0,1.79-2.05,4.52,4.52,0,0,0,.08-3.1c-.48-1.38-2.07-2.74-5-3.09a10.5,10.5,0,0,0-4.53.18A24.78,24.78,0,0,0,112.9,12.28Z" transform="translate(-0.02 0.01)"/><path class="cls-13" d="M103.84,29.69v-.61c.25.14-5.92-5.59-6-5.68H91.07a1.72,1.72,0,0,1-1-.29,2.09,2.09,0,0,1-.54-.87V16a1.68,1.68,0,0,1,.5-.83,1,1,0,0,1,.72-.32h6.48a1.31,1.31,0,0,1,1.07.39,1.22,1.22,0,0,1,.36.83v6.26l3.38,3.16a3.79,3.79,0,0,0,.87-1.15,4.63,4.63,0,0,0,.29-1.58V15a6.26,6.26,0,0,0-1-2.73,4.17,4.17,0,0,0-3.17-1.73H90.17a5.43,5.43,0,0,0-3.56,1.22,4.27,4.27,0,0,0-1.3,3.31v7.67a5.17,5.17,0,0,0,1.3,3.52,4.44,4.44,0,0,0,2.45,1.26h7.69l4.46,2.15Z" transform="translate(-0.02 0.01)"/><polygon class="cls-4" points="103.45 12.74 105.4 16.2 107.12 15.15 107.12 27.09 111.22 27.09 111.22 10.26 108.31 10.26 103.45 12.74"/><path class="cls-4" d="M112.46,11.84l2.09,3.2a6.61,6.61,0,0,1,3.31-1.26c2.12-.09,2.82.72,2.87,1.33a1.36,1.36,0,0,1-.72,1.47,2.63,2.63,0,0,1-1,.36l-3.24,0v3.41h3.6a2,2,0,0,1,1.58.87,1.73,1.73,0,0,1,.11,1.47,2.12,2.12,0,0,1-1.37,1,10.18,10.18,0,0,1-3.16,0,17.32,17.32,0,0,1-2.63-1L112,25.86a13.08,13.08,0,0,0,6.69,1.73c4.07,0,4.61-.79,5.4-1.48a5.65,5.65,0,0,0,2-3.77,3.83,3.83,0,0,0-1-3,9.7,9.7,0,0,0-1.51-1,5.88,5.88,0,0,0,1.8-2,4.55,4.55,0,0,0,.07-3.09c-.48-1.39-2.07-2.75-5-3.1a10.83,10.83,0,0,0-4.53.18A24.51,24.51,0,0,0,112.46,11.84Z" transform="translate(-0.02 0.01)"/><path class="cls-4" d="M103.4,29.24v-.61c.25.15-5.92-5.58-6-5.68H90.63a1.72,1.72,0,0,1-1-.29,2.22,2.22,0,0,1-.54-.86V15.54a1.72,1.72,0,0,1,.5-.83,1.05,1.05,0,0,1,.72-.32h6.48a1.36,1.36,0,0,1,1.08.4,1.2,1.2,0,0,1,.36.82v6.26L101.64,25a4,4,0,0,0,.86-1.16,4.59,4.59,0,0,0,.29-1.58V14.53a6.12,6.12,0,0,0-1-2.73,4.15,4.15,0,0,0-3.16-1.73H89.73a5.49,5.49,0,0,0-3.56,1.23,4.28,4.28,0,0,0-1.29,3.31v7.67a5.16,5.16,0,0,0,1.29,3.51,4.36,4.36,0,0,0,2.45,1.26h7.69l4.46,2.16Z" transform="translate(-0.02 0.01)"/><path class="cls-14" d="M25.51,48l3.38-.21A2.64,2.64,0,0,0,29.34,49a1.87,1.87,0,0,0,1.57.7,1.75,1.75,0,0,0,1.18-.36,1.06,1.06,0,0,0,.41-.82,1,1,0,0,0-.39-.8A4.47,4.47,0,0,0,30.29,47,7.68,7.68,0,0,1,27,45.64a2.81,2.81,0,0,1-1-2.22,3,3,0,0,1,.52-1.68A3.34,3.34,0,0,1,28,40.5a7.28,7.28,0,0,1,2.83-.45,5.76,5.76,0,0,1,3.37.82,3.57,3.57,0,0,1,1.38,2.61l-3.35.2a1.57,1.57,0,0,0-1.75-1.49,1.45,1.45,0,0,0-.93.26.82.82,0,0,0-.32.64.66.66,0,0,0,.26.5,3,3,0,0,0,1.2.42A15.54,15.54,0,0,1,34,45a3.53,3.53,0,0,1,1.47,1.28A3.28,3.28,0,0,1,36,48a3.63,3.63,0,0,1-.62,2,3.75,3.75,0,0,1-1.71,1.42,6.94,6.94,0,0,1-2.77.49c-2,0-3.32-.38-4.07-1.14A4.47,4.47,0,0,1,25.51,48Z" transform="translate(-0.02 0.01)"/><path class="cls-14" d="M37.42,40.24H47V42.7H41v1.83h5.54v2.35H41v2.27h6.15v2.61H37.42Z" transform="translate(-0.02 0.01)"/><path class="cls-14" d="M56.05,49.86H52l-.56,1.9H47.82l4.33-11.52H56l4.33,11.52H56.63Zm-.74-2.49L54,43.23l-1.25,4.14Z" transform="translate(-0.02 0.01)"/><path class="cls-14" d="M59.25,40.24H70.07v2.85H66.44v8.67H62.88V43.09H59.25Z" transform="translate(-0.02 0.01)"/><path class="cls-14" d="M70.78,40.24H81.6v2.85H78v8.67H74.41V43.09H70.78Z" transform="translate(-0.02 0.01)"/><path class="cls-14" d="M82.71,40.24h3.56v8.68h5.55v2.84H82.71Z" transform="translate(-0.02 0.01)"/><path class="cls-14" d="M92.94,40.24h9.53V42.7h-6v1.83H102v2.35H96.5v2.27h6.14v2.61h-9.7Z" transform="translate(-0.02 0.01)"/></svg>