<svg xmlns="http://www.w3.org/2000/svg" xmlns:xlink="http://www.w3.org/1999/xlink" viewBox="0 0 100 30"><defs><style>.cls-1{fill:#6c7aaf;}.cls-2{fill:#003383;}.cls-3{fill:#921e30;}.cls-4{fill:#fff;}.cls-5{opacity:0.7;}.cls-6{fill:url(#linear-gradient);}.cls-7{fill:url(#light_grad);}.cls-8{fill:url(#linear-gradient-2);}.cls-9{fill:url(#light_grad-2);}.cls-10{fill:url(#_281_-_75_287_CMYK_2);}.cls-11{fill:url(#RED_GRADIENT);}.cls-12{fill:url(#RED_GRADIENT-2);}.cls-13{fill:#011360;}</style><linearGradient id="linear-gradient" x1="-978.34" y1="26.61" x2="-981.39" y2="0.7" gradientTransform="translate(1077.26)" gradientUnits="userSpaceOnUse"><stop offset="0.16" stop-color="#c1c3de"/><stop offset="0.59" stop-color="#989cc8"/><stop offset="1" stop-color="#394b95"/></linearGradient><linearGradient id="light_grad" x1="-978.67" y1="26.65" x2="-992.41" y2="1.24" xlink:href="#linear-gradient"/><linearGradient id="linear-gradient-2" x1="-3690.16" y1="26.61" x2="-3693.2" y2="0.7" gradientTransform="matrix(-1, 0, 0, 1, -3626.8, 0)" xlink:href="#linear-gradient"/><linearGradient id="light_grad-2" x1="-3690.49" y1="26.65" x2="-3704.23" y2="1.24" gradientTransform="matrix(-1, 0, 0, 1, -3626.8, 0)" xlink:href="#linear-gradient"/><linearGradient id="_281_-_75_287_CMYK_2" x1="81.14" y1="2.24" x2="81.14" y2="27.77" gradientUnits="userSpaceOnUse"><stop offset="0" stop-color="#4d5da4"/><stop offset="1" stop-color="#1a2857"/></linearGradient><linearGradient id="RED_GRADIENT" x1="32.14" y1="2.23" x2="32.14" y2="27.77" gradientUnits="userSpaceOnUse"><stop offset="0.01" stop-color="#ea1c2d"/><stop offset="1" stop-color="#ab1f2d"/></linearGradient><linearGradient id="RED_GRADIENT-2" x1="32.14" y1="27.78" x2="32.14" y2="2.23" xlink:href="#RED_GRADIENT"/></defs><g id="q13"><path class="cls-1" d="M0,0V30H100V0Z"/><path class="cls-2" d="M99,1.23V28.77H63.28V1.23Z"/><path class="cls-3" d="M56.61,25.54"/><path class="cls-4" d="M55.87,24.82"/><g class="cls-5"><polygon class="cls-6" points="99 28.77 92.87 1.23 99 1.23 99 28.77"/><polygon class="cls-7" points="87.88 1.23 98.98 28.77 81.8 1.23 87.88 1.23"/></g><g class="cls-5"><polygon class="cls-8" points="63.28 28.77 69.41 1.23 63.28 1.23 63.28 28.77"/><polygon class="cls-9" points="74.4 1.23 63.3 28.77 80.48 1.23 74.4 1.23"/></g><path class="cls-10" d="M99,1.23V28.77H63.28V1.23Zm-1,1H64.28V27.78H98Z"/><polygon class="cls-11" points="63.28 1.23 1 1.23 1 28.77 63.28 28.77 63.28 1.23 63.28 1.23"/><rect class="cls-12" x="2" y="2.23" width="60.28" height="25.55"/><polygon class="cls-3" points="10.86 25.57 10.86 5.87 22.72 5.87 23.09 11.25 16.45 11.25 16.45 13.82 21.86 13.82 21.86 19.2 16.4 19.2 16.4 25.57 10.86 25.57"/><polygon class="cls-3" points="56.73 25.54 50.8 15.32 56.19 5.9 50.25 5.9 47.79 10.14 45.37 5.9 39.22 5.9 44.72 15.38 38.9 25.55 44.86 25.55 47.71 20.57 50.59 25.54 56.73 25.54"/><path class="cls-3" d="M32.32,6.16a9.48,9.48,0,0,0-9.38,9.58,9.39,9.39,0,1,0,18.77,0A9.48,9.48,0,0,0,32.32,6.16ZM34,19.67a1.64,1.64,0,0,1-1.65,1.61,1.62,1.62,0,0,1-1.59-1.63V11.8a1.69,1.69,0,0,1,1.59-1.7A1.72,1.72,0,0,1,34,11.8Z"/><polygon class="cls-4" points="10.12 24.85 10.12 5.15 21.98 5.15 22.35 10.54 15.71 10.54 15.71 13.11 21.12 13.11 21.12 18.48 15.66 18.48 15.66 24.85 10.12 24.85"/><polygon class="cls-4" points="55.99 24.82 50.06 14.6 55.45 5.18 49.51 5.18 47.05 9.42 44.63 5.18 38.48 5.18 43.98 14.67 38.16 24.83 44.13 24.83 46.97 19.85 49.85 24.82 55.99 24.82"/><path class="cls-4" d="M31.59,5.45A9.48,9.48,0,0,0,22.2,15,9.39,9.39,0,1,0,41,15,9.48,9.48,0,0,0,31.59,5.45ZM33.25,19a1.62,1.62,0,0,1-3.23,0V11.09a1.68,1.68,0,0,1,1.6-1.7,1.71,1.71,0,0,1,1.63,1.7Z"/></g><g id="Layer_2" data-name="Layer 2"><polygon class="cls-13" points="79.99 10.15 81.48 12.81 82.81 12.01 82.81 21.2 85.97 21.2 85.97 8.24 83.73 8.24 79.99 10.15"/><path class="cls-13" d="M86.91,9.46l1.61,2.47a5.07,5.07,0,0,1,2.55-1c1.63-.07,2.17.55,2.21,1a1.08,1.08,0,0,1-.55,1.14,2.08,2.08,0,0,1-.81.27l-2.49,0V16H92.2a1.55,1.55,0,0,1,1.22.66,1.34,1.34,0,0,1,.08,1.14,1.7,1.7,0,0,1-1,.75,8,8,0,0,1-2.44,0,13.4,13.4,0,0,1-2-.75l-1.44,2.49a10.06,10.06,0,0,0,5.15,1.33c3.13,0,3.55-.61,4.16-1.13a4.4,4.4,0,0,0,1.55-2.91,2.92,2.92,0,0,0-.81-2.3,6.85,6.85,0,0,0-1.16-.8,4.64,4.64,0,0,0,1.39-1.58,3.49,3.49,0,0,0,0-2.38C96.52,9.42,95.29,8.38,93,8.11a8.09,8.09,0,0,0-3.49.13A19.46,19.46,0,0,0,86.91,9.46Z"/><path class="cls-13" d="M79.93,22.86v-.47c.2.11-4.55-4.3-4.62-4.37H70.1a1.33,1.33,0,0,1-.74-.22,1.72,1.72,0,0,1-.42-.67V12.31a1.3,1.3,0,0,1,.39-.63.79.79,0,0,1,.55-.25h5a1,1,0,0,1,.83.3,1,1,0,0,1,.27.64v4.82l2.61,2.44a3,3,0,0,0,.66-.89,3.62,3.62,0,0,0,.22-1.22v-6a4.71,4.71,0,0,0-.77-2.1,3.21,3.21,0,0,0-2.44-1.33H69.41a4.16,4.16,0,0,0-2.74.94,3.3,3.3,0,0,0-1,2.55v5.9a4,4,0,0,0,1,2.71,3.36,3.36,0,0,0,1.88,1h5.93l3.43,1.66Z"/><polygon class="cls-4" points="79.65 9.81 81.15 12.47 82.48 11.67 82.48 20.86 85.63 20.86 85.63 7.9 83.39 7.9 79.65 9.81"/><path class="cls-4" d="M86.58,9.12l1.6,2.46a5.11,5.11,0,0,1,2.55-1c1.63-.07,2.18.55,2.21,1a1.07,1.07,0,0,1-.55,1.14,2.24,2.24,0,0,1-.8.27L89.1,13v2.63h2.76a1.53,1.53,0,0,1,1.22.67,1.36,1.36,0,0,1,.09,1.13,1.69,1.69,0,0,1-1.06.75,8,8,0,0,1-2.43,0,12.24,12.24,0,0,1-2-.74l-1.44,2.49a10.06,10.06,0,0,0,5.15,1.33c3.12,0,3.54-.61,4.15-1.14a4.36,4.36,0,0,0,1.55-2.9,2.94,2.94,0,0,0-.8-2.3,7.55,7.55,0,0,0-1.17-.81,4.47,4.47,0,0,0,1.39-1.57,3.46,3.46,0,0,0,.05-2.39C96.18,9.08,95,8,92.69,7.76a8.15,8.15,0,0,0-3.48.14A18.87,18.87,0,0,0,86.58,9.12Z"/><path class="cls-4" d="M79.6,22.52v-.47c.19.11-4.56-4.3-4.63-4.37h-5.2a1.31,1.31,0,0,1-.75-.23,1.65,1.65,0,0,1-.42-.66V12a1.3,1.3,0,0,1,.39-.63.81.81,0,0,1,.56-.25h5a1,1,0,0,1,.83.3.94.94,0,0,1,.28.64v4.82l2.6,2.43a3.15,3.15,0,0,0,.67-.88,3.62,3.62,0,0,0,.22-1.22v-6a4.85,4.85,0,0,0-.78-2.11,3.21,3.21,0,0,0-2.44-1.33H69.08a4.24,4.24,0,0,0-2.75.94,3.27,3.27,0,0,0-1,2.55v5.91a3.94,3.94,0,0,0,1,2.7,3.37,3.37,0,0,0,1.89,1h5.92l3.44,1.66Z"/></g></svg>